HIERARCHY
ROOT Hips
{
  OFFSET -25.4992 47.4658 0.522821
  CHANNELS 6 Xposition Yposition Zposition Zrotation Xrotation Yrotation
  JOINT Bip01_Pelvis
  {
    OFFSET 0 0 0
    CHANNELS 6 Xposition Yposition Zposition Zrotation Xrotation Yrotation
    JOINT Bip01_Spine
    {
      OFFSET 7.92815 1.03427 -0.957866
      CHANNELS 6 Xposition Yposition Zposition Zrotation Xrotation Yrotation
      JOINT Bip01_Spine1
      {
        OFFSET 14.2482 -0.00839019 0.000894789
        CHANNELS 6 Xposition Yposition Zposition Zrotation Xrotation Yrotation
        JOINT Bip01_Neck
        {
          OFFSET 16.1384 -3.98645 0.000135839
          CHANNELS 6 Xposition Yposition Zposition Zrotation Xrotation Yrotation
          JOINT Bip01_Neck1
          {
            OFFSET 9.69266 -0.00491233 0
            CHANNELS 6 Xposition Yposition Zposition Zrotation Xrotation Yrotation
            JOINT Bip01_Head
            {
              OFFSET 6.2355 0 0
              CHANNELS 6 Xposition Yposition Zposition Zrotation Xrotation Yrotation
              JOINT BN_Mouth_01
              {
                OFFSET 4.58056 2.14338 0
                CHANNELS 6 Xposition Yposition Zposition Zrotation Xrotation Yrotation
                End Site
                {
                  OFFSET 0 0 0
                }
              }
            }
          }
          JOINT Bip01_L_Clavicle
          {
            OFFSET -0.933029 -3.98291 -6.88005
            CHANNELS 6 Xposition Yposition Zposition Zrotation Xrotation Yrotation
            JOINT Bip01_L_UpperArm
            {
              OFFSET 15.6802 0 0
              CHANNELS 6 Xposition Yposition Zposition Zrotation Xrotation Yrotation
              JOINT Bip01_L_Forearm
              {
                OFFSET 15.3149 0 0
                CHANNELS 6 Xposition Yposition Zposition Zrotation Xrotation Yrotation
                JOINT Bip01_L_Hand
                {
                  OFFSET 16.178 0 0
                  CHANNELS 6 Xposition Yposition Zposition Zrotation Xrotation Yrotation
                  JOINT Bip01_L_Finger0
                  {
                    OFFSET 12.9992 0 0
                    CHANNELS 6 Xposition Yposition Zposition Zrotation Xrotation Yrotation
                    End Site
                    {
                      OFFSET 0 0 0
                    }
                  }
                }
              }
              JOINT BN__UpperArm_L_01
              {
                OFFSET 4.92586 2.56729 1.95639
                CHANNELS 6 Xposition Yposition Zposition Zrotation Xrotation Yrotation
                End Site
                {
                  OFFSET 0 0 0
                }
              }
            }
          }
          JOINT Bip01_R_Clavicle
          {
            OFFSET -1.90751 -3.34722 7.0168
            CHANNELS 6 Xposition Yposition Zposition Zrotation Xrotation Yrotation
            JOINT Bip01_R_UpperArm
            {
              OFFSET 15.6801 0 0
              CHANNELS 6 Xposition Yposition Zposition Zrotation Xrotation Yrotation
              JOINT Bip01_R_Forearm
              {
                OFFSET 15.3149 0 0
                CHANNELS 6 Xposition Yposition Zposition Zrotation Xrotation Yrotation
                JOINT Bip01_R_Hand
                {
                  OFFSET 16.1779 0 0
                  CHANNELS 6 Xposition Yposition Zposition Zrotation Xrotation Yrotation
                  JOINT Bip01_R_Finger0
                  {
                    OFFSET 12.9991 0 0
                    CHANNELS 6 Xposition Yposition Zposition Zrotation Xrotation Yrotation
                    End Site
                    {
                      OFFSET 0 0 0
                    }
                  }
                }
              }
              JOINT BN__UpperArm_R_01
              {
                OFFSET 4.92584 2.56728 -1.95638
                CHANNELS 6 Xposition Yposition Zposition Zrotation Xrotation Yrotation
                End Site
                {
                  OFFSET 0 0 0
                }
              }
            }
          }
        }
      }
      JOINT Bip01_L_Thigh
      {
        OFFSET -8.91231 -1.85462 5.82833
        CHANNELS 6 Xposition Yposition Zposition Zrotation Xrotation Yrotation
        JOINT Bip01_L_Calf
        {
          OFFSET 15.7566 0 0
          CHANNELS 6 Xposition Yposition Zposition Zrotation Xrotation Yrotation
          JOINT Bip01_L_HorseLink
          {
            OFFSET 16.2363 0 0
            CHANNELS 6 Xposition Yposition Zposition Zrotation Xrotation Yrotation
            JOINT Bip01_L_Foot
            {
              OFFSET 13.9816 0 0
              CHANNELS 6 Xposition Yposition Zposition Zrotation Xrotation Yrotation
              JOINT Bip01_L_Toe0
              {
                OFFSET 7.68594 5.03696 0
                CHANNELS 6 Xposition Yposition Zposition Zrotation Xrotation Yrotation
                End Site
                {
                  OFFSET 0 0 0
                }
              }
            }
          }
        }
      }
      JOINT Bip01_R_Thigh
      {
        OFFSET -6.80264 -1.57702 -6.62463
        CHANNELS 6 Xposition Yposition Zposition Zrotation Xrotation Yrotation
        JOINT Bip01_R_Calf
        {
          OFFSET 15.7566 0 0
          CHANNELS 6 Xposition Yposition Zposition Zrotation Xrotation Yrotation
          JOINT Bip01_R_HorseLink
          {
            OFFSET 16.2363 0 0
            CHANNELS 6 Xposition Yposition Zposition Zrotation Xrotation Yrotation
            JOINT Bip01_R_Foot
            {
              OFFSET 13.9816 0 0
              CHANNELS 6 Xposition Yposition Zposition Zrotation Xrotation Yrotation
              JOINT Bip01_R_Toe0
              {
                OFFSET 7.68597 5.03696 0
                CHANNELS 6 Xposition Yposition Zposition Zrotation Xrotation Yrotation
                End Site
                {
                  OFFSET 0 0 0
                }
              }
            }
          }
        }
      }
    }
    JOINT BN_Tail_01
    {
      OFFSET -7.9584 -2.82211 0
      CHANNELS 6 Xposition Yposition Zposition Zrotation Xrotation Yrotation
      JOINT BN_Tail_02
      {
        OFFSET 10.9082 0 0.00113176
        CHANNELS 6 Xposition Yposition Zposition Zrotation Xrotation Yrotation
        End Site
        {
          OFFSET 0 0 0
        }
      }
    }
  }
}
MOTION
Frames:	5
Frame Time:	0.0333333
-24.1804 51.7132 -7.07229e-006 -101.997 -84.9807 0.00165497 0 0 0 -89.9441 -3.50835e-015 -90 7.98093 1.06496 -0.00116324 -8.99398 -0.000282391 -3.43132 14.2466 -0.00813675 2.38418e-007 -15.9989 -0.00566839 -7.90709 16.1388 -3.98756 -5.00679e-006 -51.9984 -0.00173036 -1.75962 9.69337 -0.00496292 -0.000238895 0.154465 2.76039 8.27668 6.23548 3.8147e-006 8.88178e-016 24.9797 -6.62659 -1.03497 4.58056 2.14339 -2.98023e-007 -117.375 1.45866 -179.002 -2.33512 -3.30981 -6.90432 -127.849 9.60781 -91.0998 15.6802 3.8147e-006 -1.90735e-006 3.27432 -80.9421 80.4552 15.3149 -1.90736e-006 -4.76837e-007 -13.5057 -1.91383e-006 2.20528e-006 16.178 3.55275e-015 -4.76837e-007 -9.61737 -83.765 -21.7376 12.9992 0 9.5366e-007 1.44723 10.0959 5.6573 4.92585 2.56728 1.95639 14.1162 -8.48209 -6.70252 -1.90639 -3.3102 7.03459 -128.32 -14.8431 88.8781 15.6801 -3.8147e-006 1.90735e-006 12.708 62.388 -97.3215 15.3149 -1.90736e-006 -2.38418e-007 -17.0944 -3.20465e-006 4.4546e-006 16.178 -9.53681e-007 -2.14576e-006 -115.776 81.1306 112.722 12.9993 -4.76844e-007 1.90733e-006 0.00237828 0.0454005 -5.99687 4.92581 2.56728 -1.95638 -165.885 -8.52253 173.302 -7.32426 -2.29974 6.76733 -87.1425 9.9343 -178.259 15.7566 -1.90735e-006 2.86102e-006 -20.8602 1.4591e-006 7.95894e-007 16.2363 0 -1.90735e-006 36.6751 8.83735e-007 -1.50936e-007 13.9816 1.90735e-006 1.77635e-015 -7.05182 -5.86999 -4.77664 7.68593 5.03695 0 89.9958 3.18051 0.000111801 -8.08074 -2.29911 -5.84346 -100.492 -5.04725 174.787 15.7566 0 -1.90735e-006 -23.3438 5.73168e-006 2.44627e-006 16.2363 1.90735e-006 9.53673e-007 36.4358 3.4766e-006 -1.18979e-006 13.9816 -3.55271e-015 -1.90735e-006 -18.6938 11.6885 5.1119 7.6862 5.03661 -0.000926969 89.9958 0.00477089 4.63542 -7.95841 -2.82212 0 -69.8623 5.6815 177.315 10.9082 0 -5.96046e-007 29.9384 3.28137e-005 13.7346 
-24.1879 51.5668 0.0810872 -101.955 -84.977 0.0644418 -2.69294e-006 -2.08593e-007 1.82835e-007 -90.6351 -0.0164457 -90.587 7.98044 1.06102 -0.0731146 -9.11577 0.535513 -2.70955 14.2466 -0.00815416 1.04737e-005 -15.0634 -0.190695 -7.93225 16.139 -3.9877 2.07835e-005 -49.4646 -0.12132 -1.68635 9.69341 -0.00495205 -0.000240517 -3.52442 2.22077 8.44872 6.23548 1.15327e-006 -1.57707e-006 25.2728 -6.1749 -1.48111 4.58056 2.14338 -5.55384e-007 -117.698 1.37859 -178.998 -2.47031 -3.1984 -6.90912 -130.415 8.58509 -91.017 15.6801 -6.69846e-007 -1.36548e-006 2.30053 -81.2734 80.3812 15.3148 -4.96305e-006 3.19737e-006 -14.6574 1.31079e-005 -1.41603e-005 16.1779 -1.35558e-006 3.6311e-006 -8.45624 -83.7823 -21.2044 12.9992 -1.67634e-006 -1.94975e-006 1.44741 10.096 5.68876 4.92584 2.56727 1.95639 14.1162 -8.48213 -6.70254 -2.05995 -3.22614 7.03069 -130.817 -13.9458 88.9638 15.6801 1.76419e-007 7.46353e-007 9.08997 62.6541 -94.7916 15.3149 -5.12778e-006 6.68459e-006 -18.4187 -1.47604e-005 -2.07202e-005 16.178 -4.16544e-006 5.78408e-006 -122.261 80.9099 119.737 12.9993 4.84131e-006 3.94258e-006 0.00234706 0.0454052 -5.83027 4.92581 2.56728 -1.95637 -165.885 -8.52251 173.302 -7.39984 -2.25438 6.76678 -88.9646 9.92441 -177.838 15.7566 2.7351e-007 -7.37764e-007 -24.4509 3.88402e-006 1.54485e-005 16.2363 -3.54903e-006 -4.46988e-006 38.3448 1.36878e-005 2.11987e-006 13.9816 4.09933e-006 -3.20349e-006 -6.82768 -5.87778 -4.89435 7.68593 5.03696 -1.94022e-006 89.7178 3.24606 0.0133128 -7.99742 -2.37275 -5.85206 -101.026 -4.94829 174.83 15.7566 3.2354e-007 -3.63602e-006 -24.8748 5.54518e-006 1.21427e-005 16.2363 -4.04414e-006 -1.43736e-006 37.3688 1.18781e-005 2.25315e-006 13.9816 -1.10025e-006 -3.57719e-006 -18.6776 11.6998 5.02578 7.68619 5.0366 -0.000928452 89.9958 0.00478425 4.63542 -7.95841 -2.82212 -7.8736e-007 -69.4786 5.56584 177.232 10.9082 -9.42717e-007 -1.26601e-006 30.3876 -0.0745976 13.6497 
-24.1952 51.4204 0.16172 -101.925 -84.972 0.138287 -8.5025e-007 -2.86259e-007 -3.98827e-008 -91.4532 -0.0198762 -91.2535 7.97916 1.06161 -0.149825 -9.27822 1.23497 -1.84727 14.2466 -0.00815959 2.00861e-005 -14.004 -0.392207 -7.92207 16.1392 -3.98784 4.60138e-005 -46.833 -0.240042 -1.56097 9.69348 -0.00493779 -0.000240775 -7.76444 1.57551 8.63083 6.23548 3.86922e-006 1.65876e-008 25.8716 -5.64279 -2.09979 4.58056 2.14338 -4.99202e-007 -118.018 1.29898 -178.994 -2.60047 -3.07467 -6.91798 -133.086 7.48711 -90.9031 15.6801 -1.04424e-007 -2.69453e-006 1.55879 -81.7445 80.5938 15.3149 -1.03495e-006 2.79374e-007 -15.7581 8.49047e-006 3.19695e-006 16.178 -1.58375e-006 2.4847e-007 -6.9969 -83.8161 -20.3698 12.9992 4.70393e-007 -1.15288e-006 1.44758 10.0961 5.72 4.92584 2.56728 1.95639 14.1162 -8.4821 -6.70251 -2.2209 -3.13374 7.02266 -133.409 -12.9125 89.0813 15.6801 -1.14336e-006 -1.31773e-006 5.09477 63.0712 -91.9756 15.3149 2.98385e-006 1.36087e-006 -19.5858 5.19864e-006 -1.37181e-005 16.178 -9.96072e-007 -2.72598e-007 -128.594 80.5596 126.517 12.9993 8.88333e-007 1.75398e-006 0.00227095 0.0454152 -5.66463 4.92581 2.56728 -1.95638 -165.885 -8.52264 173.302 -7.49062 -2.19454 6.75767 -90.507 9.9469 -177.458 15.7566 -3.04199e-006 3.74977e-006 -27.5553 -2.11686e-005 3.01098e-006 16.2363 -2.25182e-006 -1.46611e-006 39.7767 1.3713e-005 1.75128e-006 13.9816 -2.91156e-006 1.39769e-006 -6.37063 -5.8936 -5.04767 7.68592 5.03695 -3.53555e-007 89.4414 3.3111 0.0267334 -7.89637 -2.46832 -5.8656 -101.396 -4.82971 174.892 15.7566 -7.74284e-007 -5.35324e-007 -26.1308 5.25073e-006 1.22459e-005 16.2363 -1.57685e-006 1.96441e-006 38.1547 1.19645e-005 2.0496e-006 13.9816 -7.4155e-008 -8.82105e-007 -18.6618 11.7109 4.94003 7.68619 5.0366 -0.000926242 89.9958 0.00476908 4.63542 -7.95841 -2.82212 -3.00136e-009 -68.4277 5.2497 177.015 10.9082 7.49799e-007 -1.05645e-007 30.9418 -0.172339 13.5408 
-24.2026 51.2691 0.242423 -101.88 -84.9637 0.236043 -1.77528e-006 -3.40678e-007 1.15485e-006 -92.2731 -0.0172254 -91.9241 7.97777 1.06298 -0.227418 -9.46898 1.9317 -0.961069 14.2466 -0.00816673 2.95341e-005 -12.867 -0.600655 -7.88708 16.1394 -3.98799 7.02594e-005 -44.1393 -0.35661 -1.40996 9.69355 -0.00492978 -0.000242213 -12.3375 0.867284 8.77833 6.23548 4.992e-006 -7.05948e-007 26.6251 -5.05464 -2.78609 4.58056 2.14338 -4.98515e-007 -118.339 1.21938 -178.991 -2.72537 -2.94393 -6.92775 -135.817 6.34121 -90.7702 15.6801 -1.25924e-006 -2.26447e-006 1.03907 -82.298 81.0642 15.3149 -1.55706e-006 1.20554e-006 -16.7981 8.39883e-006 3.389e-006 16.1779 -1.74712e-006 1.11639e-006 -5.33926 -83.8539 -19.3173 12.9992 -6.35461e-007 9.99259e-007 1.44775 10.0962 5.75124 4.92585 2.56728 1.95639 14.1162 -8.48215 -6.70253 -2.38282 -3.03207 7.01479 -136.062 -11.8058 89.218 15.6801 -3.43115e-006 8.85827e-008 0.815987 63.546 -88.9025 15.3149 -4.48357e-006 -1.61832e-006 -20.6193 1.67948e-006 1.24089e-005 16.178 -4.9927e-006 -3.58748e-006 -134.557 80.0862 132.842 12.9993 -1.0281e-006 4.33449e-006 0.00219404 0.0454163 -5.49909 4.92581 2.56728 -1.95638 -165.885 -8.52251 173.302 -7.58251 -2.1377 6.74688 -91.9112 9.98256 -177.093 15.7566 -2.46251e-006 2.89975e-006 -30.3966 -3.12004e-007 1.42732e-005 16.2363 -9.27479e-007 -1.33945e-006 41.0622 1.31629e-005 7.72882e-007 13.9816 -1.68308e-006 1.25227e-006 -5.89988 -5.91112 -5.20388 7.68593 5.03696 -2.63114e-007 89.1651 3.37607 0.0404661 -7.79436 -2.56423 -5.87759 -101.762 -4.69164 174.955 15.7566 -4.05566e-007 -2.14734e-006 -27.3862 -1.98211e-005 7.68538e-007 16.2363 8.34636e-008 7.87592e-007 38.9325 -9.56827e-006 1.85609e-005 13.9816 6.3349e-008 -2.43005e-006 -18.6372 11.7226 4.85468 7.68619 5.03661 -0.000929141 89.9958 0.00477647 4.63541 -7.95841 -2.82212 -1.90155e-007 -66.8432 4.77421 176.703 10.9082 1.08397e-006 -7.57804e-007 32.1185 -0.405509 13.2906 
-24.21 51.118 0.323132 -101.836 -84.9554 0.335313 -1.86092e-006 -3.34987e-007 3.75582e-008 -92.9072 -0.0112771 -92.5073 7.97565 1.06512 -0.295934 -9.66121 2.46025 -0.17401 14.2467 -0.00817484 3.89608e-005 -11.7195 -0.811852 -7.84703 16.1396 -3.98813 9.55378e-005 -41.4295 -0.462639 -1.2468 9.6936 -0.0049091 -0.000243207 -16.9474 0.144193 8.86713 6.23548 4.23705e-006 -4.58308e-007 27.4214 -4.41674 -3.45105 4.58056 2.14338 -4.8201e-007 -118.723 1.12312 -178.987 -2.84468 -2.80757 -6.93698 -138.555 5.1814 -90.6321 15.6801 1.2789e-006 -2.99543e-006 0.670656 -82.8853 81.6833 15.3149 2.76847e-007 2.15011e-008 -17.7771 7.95118e-006 4.82913e-006 16.1779 4.662e-006 -7.7879e-007 -3.55425 -83.8964 -18.0873 12.9992 1.4828e-006 1.14758e-006 1.44792 10.0963 5.78246 4.92584 2.56728 1.95639 14.1162 -8.48212 -6.70251 -2.54019 -2.92043 7.00464 -138.731 -10.6916 89.3593 15.6801 -5.78943e-006 -1.2248e-006 -3.60339 64.0047 -85.657 15.3149 4.73486e-006 2.25737e-006 -21.5385 1.03628e-005 -1.10256e-005 16.178 6.11586e-006 -2.70681e-007 -139.99 79.5015 138.565 12.9993 7.1482e-007 -3.85076e-006 0.00214177 0.0453877 -5.3335 4.92582 2.56728 -1.95638 -165.885 -8.52254 173.302 -7.66328 -2.10013 6.73204 -93.2737 10.0108 -176.731 15.7566 -3.63723e-006 2.27662e-006 -33.1034 1.57561e-005 -1.03223e-005 16.2363 -4.2715e-006 -3.82799e-006 42.2531 1.31532e-005 4.75581e-007 13.9816 -1.75803e-006 1.11684e-006 -5.64391 -5.9223 -5.32954 7.68593 5.03696 -1.40704e-008 88.8475 3.4508 0.0567678 -7.70235 -2.64267 -5.88969 -102.262 -4.54232 175.01 15.7566 -1.47133e-007 -2.8125e-006 -28.8634 -6.04465e-006 7.86023e-006 16.2363 -4.12741e-006 1.35816e-006 39.7975 1.13687e-006 1.00313e-005 13.9816 7.0334e-007 -2.59772e-006 -18.6072 11.7346 4.76943 7.68619 5.03661 -0.000928318 89.9958 0.00479646 4.63539 -7.9584 -2.82213 -5.4582e-007 -64.8601 4.18098 176.34 10.9082 2.15798e-006 -8.05283e-007 33.263 -0.636857 13.0521 
